<mxfile host="app.diagrams.net" modified="2023-09-16T03:33:39.008Z" agent="Mozilla/5.0 (Windows NT 10.0; Win64; x64) AppleWebKit/537.36 (KHTML, like Gecko) Chrome/116.0.0.0 Safari/537.36" etag="ZVR44SChBf-Hl5PaaY-b" version="21.7.5" type="github">
  <diagram id="C5RBs43oDa-KdzZeNtuy" name="Page-1">
    <mxGraphModel dx="819" dy="433" grid="1" gridSize="10" guides="1" tooltips="1" connect="1" arrows="1" fold="1" page="1" pageScale="1" pageWidth="827" pageHeight="1169" math="0" shadow="0">
      <root>
        <mxCell id="WIyWlLk6GJQsqaUBKTNV-0" />
        <mxCell id="WIyWlLk6GJQsqaUBKTNV-1" parent="WIyWlLk6GJQsqaUBKTNV-0" />
        <mxCell id="ExbAvRTozxGiJLpqLS4M-0" value="&lt;b&gt;核心技术&lt;/b&gt;" style="swimlane;fontStyle=0;childLayout=stackLayout;horizontal=1;startSize=30;horizontalStack=0;resizeParent=1;resizeParentMax=0;resizeLast=0;collapsible=1;marginBottom=0;whiteSpace=wrap;html=1;swimlaneFillColor=default;rounded=1;glass=0;shadow=0;swimlaneLine=1;" vertex="1" parent="WIyWlLk6GJQsqaUBKTNV-1">
          <mxGeometry x="340" y="330" width="90" height="180" as="geometry">
            <mxRectangle x="340" y="330" width="90" height="30" as="alternateBounds" />
          </mxGeometry>
        </mxCell>
        <mxCell id="ExbAvRTozxGiJLpqLS4M-1" value="机械设计" style="text;align=left;verticalAlign=middle;spacingLeft=4;spacingRight=4;overflow=hidden;points=[[0,0.5],[1,0.5]];portConstraint=eastwest;rotatable=0;whiteSpace=wrap;html=1;swimlaneFillColor=default;rounded=1;glass=0;shadow=0;swimlaneLine=1;" vertex="1" parent="ExbAvRTozxGiJLpqLS4M-0">
          <mxGeometry y="30" width="90" height="30" as="geometry" />
        </mxCell>
        <mxCell id="ExbAvRTozxGiJLpqLS4M-2" value="应力分析" style="text;align=left;verticalAlign=middle;spacingLeft=4;spacingRight=4;overflow=hidden;points=[[0,0.5],[1,0.5]];portConstraint=eastwest;rotatable=0;whiteSpace=wrap;html=1;swimlaneFillColor=default;rounded=1;glass=0;shadow=0;swimlaneLine=1;" vertex="1" parent="ExbAvRTozxGiJLpqLS4M-0">
          <mxGeometry y="60" width="90" height="30" as="geometry" />
        </mxCell>
        <mxCell id="ExbAvRTozxGiJLpqLS4M-3" value="运动受力分析" style="text;align=left;verticalAlign=middle;spacingLeft=4;spacingRight=4;overflow=hidden;points=[[0,0.5],[1,0.5]];portConstraint=eastwest;rotatable=0;whiteSpace=wrap;html=1;swimlaneFillColor=default;rounded=1;glass=0;shadow=0;swimlaneLine=1;" vertex="1" parent="ExbAvRTozxGiJLpqLS4M-0">
          <mxGeometry y="90" width="90" height="30" as="geometry" />
        </mxCell>
        <mxCell id="ExbAvRTozxGiJLpqLS4M-5" value="可靠性" style="text;align=left;verticalAlign=middle;spacingLeft=4;spacingRight=4;overflow=hidden;points=[[0,0.5],[1,0.5]];portConstraint=eastwest;rotatable=0;whiteSpace=wrap;html=1;swimlaneFillColor=default;rounded=1;glass=0;shadow=0;swimlaneLine=1;" vertex="1" parent="ExbAvRTozxGiJLpqLS4M-0">
          <mxGeometry y="120" width="90" height="30" as="geometry" />
        </mxCell>
        <mxCell id="ExbAvRTozxGiJLpqLS4M-7" value="论文撰写" style="text;align=left;verticalAlign=middle;spacingLeft=4;spacingRight=4;overflow=hidden;points=[[0,0.5],[1,0.5]];portConstraint=eastwest;rotatable=0;whiteSpace=wrap;html=1;swimlaneFillColor=default;rounded=1;glass=0;shadow=0;swimlaneLine=1;" vertex="1" parent="ExbAvRTozxGiJLpqLS4M-0">
          <mxGeometry y="150" width="90" height="30" as="geometry" />
        </mxCell>
        <mxCell id="ExbAvRTozxGiJLpqLS4M-10" value="Solidworks" style="rounded=0;whiteSpace=wrap;html=1;fillColor=#d5e8d4;strokeColor=#82b366;" vertex="1" parent="WIyWlLk6GJQsqaUBKTNV-1">
          <mxGeometry x="180" y="280" width="70" height="30" as="geometry" />
        </mxCell>
        <mxCell id="ExbAvRTozxGiJLpqLS4M-9" style="edgeStyle=orthogonalEdgeStyle;rounded=0;orthogonalLoop=1;jettySize=auto;html=1;exitX=0;exitY=0.5;exitDx=0;exitDy=0;entryX=1;entryY=0.5;entryDx=0;entryDy=0;" edge="1" parent="WIyWlLk6GJQsqaUBKTNV-1" source="ExbAvRTozxGiJLpqLS4M-1" target="ExbAvRTozxGiJLpqLS4M-10">
          <mxGeometry relative="1" as="geometry">
            <mxPoint x="300" y="330" as="targetPoint" />
          </mxGeometry>
        </mxCell>
        <mxCell id="ExbAvRTozxGiJLpqLS4M-11" value="Fushion 360" style="rounded=0;whiteSpace=wrap;html=1;fillColor=#d5e8d4;strokeColor=#82b366;" vertex="1" parent="WIyWlLk6GJQsqaUBKTNV-1">
          <mxGeometry x="180" y="320" width="70" height="30" as="geometry" />
        </mxCell>
        <mxCell id="ExbAvRTozxGiJLpqLS4M-12" style="edgeStyle=orthogonalEdgeStyle;rounded=0;orthogonalLoop=1;jettySize=auto;html=1;exitX=0;exitY=0.5;exitDx=0;exitDy=0;entryX=1;entryY=0.5;entryDx=0;entryDy=0;" edge="1" parent="WIyWlLk6GJQsqaUBKTNV-1" source="ExbAvRTozxGiJLpqLS4M-1" target="ExbAvRTozxGiJLpqLS4M-11">
          <mxGeometry relative="1" as="geometry" />
        </mxCell>
        <mxCell id="ExbAvRTozxGiJLpqLS4M-13" value="Simulation" style="rounded=0;whiteSpace=wrap;html=1;fillColor=#d5e8d4;strokeColor=#82b366;" vertex="1" parent="WIyWlLk6GJQsqaUBKTNV-1">
          <mxGeometry x="180" y="370" width="70" height="30" as="geometry" />
        </mxCell>
        <mxCell id="ExbAvRTozxGiJLpqLS4M-14" value="Latex" style="rounded=0;whiteSpace=wrap;html=1;fillColor=#d5e8d4;strokeColor=#82b366;" vertex="1" parent="WIyWlLk6GJQsqaUBKTNV-1">
          <mxGeometry x="180" y="480" width="70" height="30" as="geometry" />
        </mxCell>
        <mxCell id="ExbAvRTozxGiJLpqLS4M-15" style="edgeStyle=orthogonalEdgeStyle;rounded=0;orthogonalLoop=1;jettySize=auto;html=1;entryX=1;entryY=0.5;entryDx=0;entryDy=0;" edge="1" parent="WIyWlLk6GJQsqaUBKTNV-1" source="ExbAvRTozxGiJLpqLS4M-2" target="ExbAvRTozxGiJLpqLS4M-13">
          <mxGeometry relative="1" as="geometry" />
        </mxCell>
        <mxCell id="ExbAvRTozxGiJLpqLS4M-17" style="edgeStyle=orthogonalEdgeStyle;rounded=0;orthogonalLoop=1;jettySize=auto;html=1;exitX=0;exitY=0.5;exitDx=0;exitDy=0;entryX=1;entryY=0.5;entryDx=0;entryDy=0;" edge="1" parent="WIyWlLk6GJQsqaUBKTNV-1" source="ExbAvRTozxGiJLpqLS4M-7" target="ExbAvRTozxGiJLpqLS4M-14">
          <mxGeometry relative="1" as="geometry" />
        </mxCell>
        <mxCell id="ExbAvRTozxGiJLpqLS4M-16" style="edgeStyle=orthogonalEdgeStyle;rounded=0;orthogonalLoop=1;jettySize=auto;html=1;exitX=0;exitY=0.5;exitDx=0;exitDy=0;entryX=0.5;entryY=1;entryDx=0;entryDy=0;" edge="1" parent="WIyWlLk6GJQsqaUBKTNV-1" source="ExbAvRTozxGiJLpqLS4M-3" target="ExbAvRTozxGiJLpqLS4M-13">
          <mxGeometry relative="1" as="geometry">
            <mxPoint x="300" y="410" as="targetPoint" />
            <Array as="points">
              <mxPoint x="215" y="435" />
            </Array>
          </mxGeometry>
        </mxCell>
        <mxCell id="ExbAvRTozxGiJLpqLS4M-24" style="edgeStyle=orthogonalEdgeStyle;rounded=0;orthogonalLoop=1;jettySize=auto;html=1;" edge="1" parent="WIyWlLk6GJQsqaUBKTNV-1" source="ExbAvRTozxGiJLpqLS4M-21" target="ExbAvRTozxGiJLpqLS4M-3">
          <mxGeometry relative="1" as="geometry" />
        </mxCell>
        <mxCell id="ExbAvRTozxGiJLpqLS4M-21" value="Matlab" style="rounded=0;whiteSpace=wrap;html=1;fillColor=#ffe6cc;strokeColor=#d79b00;" vertex="1" parent="WIyWlLk6GJQsqaUBKTNV-1">
          <mxGeometry x="80" y="400" width="70" height="30" as="geometry" />
        </mxCell>
        <mxCell id="ExbAvRTozxGiJLpqLS4M-22" value="Adams" style="rounded=0;whiteSpace=wrap;html=1;fillColor=#ffe6cc;strokeColor=#d79b00;" vertex="1" parent="WIyWlLk6GJQsqaUBKTNV-1">
          <mxGeometry x="80" y="450" width="70" height="30" as="geometry" />
        </mxCell>
      </root>
    </mxGraphModel>
  </diagram>
</mxfile>
